<svg width="24" height="24" viewBox="0 0 24 24" fill="none" xmlns="http://www.w3.org/2000/svg">
<path d="M19.2 4.875H17.55V3.75C17.55 3.375 17.25 3 16.8 3C16.425 3 16.05 3.3 16.05 3.75V4.875H7.875V3.75C7.875 3.375 7.575 3 7.125 3C6.75 3 6.375 3.3 6.375 3.75V4.875H4.8C3.825 4.875 3 5.625 3 6.675V19.2C3 20.175 3.825 21 4.8 21H19.2C20.175 21 21 20.175 21 19.2V6.675C21 5.625 20.175 4.875 19.2 4.875ZM7.2 7.2C7.575 7.2 7.95 6.9 7.95 6.45V6.3H16.125V6.45C16.125 6.825 16.425 7.2 16.875 7.2C17.25 7.2 17.625 6.9 17.625 6.45V6.3H19.2C19.425 6.3 19.65 6.525 19.65 6.75V8.475H4.425V6.75C4.425 6.525 4.65 6.3 4.875 6.3H6.45V6.45C6.45 6.825 6.75 7.2 7.2 7.2ZM19.575 19.125C19.575 19.35 19.35 19.575 19.125 19.575H4.875C4.65 19.575 4.425 19.35 4.425 19.125V13.65V9.975H19.575V19.125Z" fill="#111827"/>
</svg>
