<svg width="25" height="24" viewBox="0 0 25 24" fill="none" xmlns="http://www.w3.org/2000/svg">
<path d="M9.46643 12L11.4664 14L15.4664 10M21.4664 12C21.4664 13.1819 21.2336 14.3522 20.7813 15.4442C20.3291 16.5361 19.6661 17.5282 18.8304 18.364C17.9947 19.1997 17.0025 19.8626 15.9106 20.3149C14.8187 20.7672 13.6483 21 12.4664 21C11.2845 21 10.1142 20.7672 9.02228 20.3149C7.93035 19.8626 6.9382 19.1997 6.10247 18.364C5.26674 17.5282 4.60381 16.5361 4.15151 15.4442C3.69922 14.3522 3.46643 13.1819 3.46643 12C3.46643 9.61305 4.41464 7.32387 6.10247 5.63604C7.7903 3.94821 10.0795 3 12.4664 3C14.8534 3 17.1426 3.94821 18.8304 5.63604C20.5182 7.32387 21.4664 9.61305 21.4664 12Z" stroke="#917CDA" stroke-width="2" stroke-linecap="round" stroke-linejoin="round"/>
</svg>
